<svg width="37" height="37" viewBox="0 0 37 37" fill="none" xmlns="http://www.w3.org/2000/svg">
<g clip-path="url(#clip0_275_338)">
<path d="M20.0762 30.1714H16.8698L16.7031 35.0931L20.3003 35.05L20.0762 30.1714Z" fill="#FF7716"/>
<path d="M19.8392 23.917L17.0982 23.9342L16.9775 28.2296L20.0173 28.198L19.8392 23.917Z" fill="#FF7716"/>
<path d="M19.619 17.9434L17.3636 17.9721L17.2314 21.9371L19.7713 21.983L19.619 17.9434Z" fill="#FF7716"/>
<path d="M19.4358 12.2261L17.5079 12.2548L17.4102 15.9957L19.5966 15.987L19.4358 12.2261Z" fill="#FF7716"/>
<path d="M19.3587 10.212L19.2351 6.8389L18.9967 6.82453C18.6978 6.80729 18.2238 6.81016 17.8934 6.88774L17.698 6.93371L17.5859 10.2177H19.0857L19.3587 10.212Z" fill="#FF7716"/>
<path d="M36.9996 35.0683L21.43 2.02692L21.3754 1.912L18.5223 1.90625H18.4965H18.4706L15.6204 1.912L0.131195 34.7867L-0.000976562 35.0683L7.03252 35.0396L18.4965 1.98095L29.969 35.0396L36.9996 35.0683Z" fill="#FF7716"/>
</g>
<defs>
<clipPath id="clip0_275_338">
<rect width="37" height="37" fill="white"/>
</clipPath>
</defs>
</svg>
