<svg width="237" height="23" viewBox="0 0 237 23" fill="none" xmlns="http://www.w3.org/2000/svg">
<path d="M39.0298 11.5075C39.0298 4.28611 43.7598 0 50.6318 0C56.3074 0 60.5009 2.86963 61.761 7.85048H57.8821C56.9037 5.07541 54.4451 3.46594 50.6318 3.46594C45.4599 3.46594 42.8141 6.27189 42.8141 11.5055C42.8141 16.7392 45.429 19.4834 50.6318 19.4834C54.4799 19.4834 56.8767 17.9376 57.8532 15.1625H61.7649C60.2191 20.6799 55.8384 22.9493 50.6357 22.9493C43.6999 22.9493 39.0336 18.6922 39.0336 11.5036L39.0298 11.5075Z" fill="white"/>
<path d="M63.6528 11.5075C63.6528 4.28611 68.3828 0 75.2549 0C82.1269 0 86.9206 4.25717 86.9206 11.4476C86.9206 18.6381 82.318 22.9532 75.2549 22.9532C68.1917 22.9532 63.6528 18.696 63.6528 11.5075ZM83.1362 11.5075C83.1362 6.3375 80.4576 3.46787 75.2549 3.46787C70.0521 3.46787 67.4372 6.27382 67.4372 11.5075C67.4372 16.7411 70.0521 19.4853 75.2549 19.4853C80.4576 19.4853 83.1362 16.5848 83.1362 11.5075Z" fill="white"/>
<path d="M130.567 19.3579H128.414L128.302 22.6637L130.718 22.6347L130.567 19.3579Z" fill="white"/>
<path d="M130.409 15.1567L128.568 15.1683L128.487 18.0534L130.529 18.0322L130.409 15.1567Z" fill="white"/>
<path d="M130.261 11.1447L128.746 11.164L128.657 13.8271L130.363 13.858L130.261 11.1447Z" fill="white"/>
<path d="M130.138 7.30432L128.843 7.32362L128.778 9.83624L130.246 9.83045L130.138 7.30432Z" fill="white"/>
<path d="M130.086 5.95157L130.003 3.68597L129.843 3.67632C129.642 3.66474 129.324 3.66667 129.102 3.71877L128.971 3.74965L128.896 5.95543H129.903L130.086 5.95157Z" fill="white"/>
<path d="M197.007 0.505615H213.75V5.29927H201.924V8.73626H213.275V13.4971H201.924V17.818H213.75V22.5788H197.007V0.505615Z" fill="#FF7716"/>
<path d="M141.935 22.6463L131.477 0.453488L131.441 0.376296L129.525 0.372437H129.507H129.49L127.575 0.376296L117.172 22.4572L117.083 22.6463L121.807 22.627L129.507 0.422611L137.213 22.627L141.935 22.6463Z" fill="white"/>
<path d="M231.317 13.0861H231.313C233.519 11.8568 234.653 9.87099 234.653 7.3468C234.653 1.98578 229.987 0.505615 225.448 0.505615H216.461V22.5132L221.382 22.6078V14.381H221.394V9.62012H221.382V5.23558H225.384C229.076 5.23558 229.642 5.70839 229.642 7.35066C229.642 9.14731 229.14 9.62012 225.575 9.62012H224.126L223.248 14.381H225.386C225.734 14.381 226.112 14.3501 226.492 14.3173L230.967 22.5769H236.674L231.315 13.0861H231.317Z" fill="#FF7716"/>
<path d="M182.635 0.505615H174.885L173.22 5.24909H181.369V5.26646H182.631C187.518 5.26646 189.285 7.09399 189.285 11.4785H189.282C189.282 15.8592 187.331 17.8469 182.031 17.8469H178.44V8.16697H173.523V22.5769H182.004C189.509 22.5769 194.332 18.6381 194.332 11.4476C194.332 4.25717 189.793 0.505615 182.637 0.505615H182.635Z" fill="#FF7716"/>
<path d="M3.71875 19.082V12.839H14.9117V9.33644H3.71875V4.00822H15.342L16.3938 0.548071V0.505615H0V22.5846H15.288L16.3532 19.082H3.71875Z" fill="white"/>
<path d="M105.117 19.0762H92.5322V0.505615H88.8115V22.5769H104.051L105.117 19.0762Z" fill="white"/>
<path d="M18.1902 15.4191L22.1 15.3555C22.1 18.3197 23.6785 19.4853 27.9299 19.4853C31.8725 19.4853 33.6055 18.2888 33.6055 16.3011C33.6055 14.5353 32.9416 13.7769 28.8755 13.2134L25.9422 12.8043C21.0251 12.1404 18.1882 10.4711 18.1882 6.37412C18.1882 2.27713 21.5615 0.0983683 27.4262 0.0057373C33.7329 0.0694211 36.8534 2.62063 36.6951 7.19622H32.8799C32.8799 4.51764 31.0832 3.44466 27.4262 3.44466C23.7692 3.44466 21.9089 4.51764 21.9089 6.31429C21.9089 8.11095 22.7271 8.71112 26.3533 9.24761L29.441 9.68953C34.8618 10.4769 37.4497 12.3044 37.4497 16.3435C37.4497 20.3826 34.1072 22.9647 27.9589 22.9647H27.928C20.9923 22.9647 17.9952 20.0951 18.1863 15.4288L18.1902 15.4211V15.4191Z" fill="white"/>
<path d="M119.806 0.519124V0.505615H99.5625V4.00822H107.822H107.826V22.5769H111.516V4.00822H118.745L119.806 0.519124Z" fill="white"/>
<path d="M162.558 17.816H151.326V0.505615H146.405V22.5769H161.182L162.558 17.816Z" fill="#FF7716"/>
<path d="M165.889 0.505615H170.81V22.5769H165.889V0.505615Z" fill="#FF7716"/>
</svg>
