<svg width="39" height="41" viewBox="0 0 39 41" fill="none" xmlns="http://www.w3.org/2000/svg">
<g clip-path="url(#clip0_275_280)">
<path d="M0 8.93108L0.0128324 8.90562C0.118437 8.69097 0.145051 8.45022 0.241896 8.22517C0.603041 7.38592 1.28326 6.55904 2.14122 6.26045C2.45624 6.15262 2.78148 6.0802 3.11137 6.0444C3.77671 5.97865 4.93713 6.01697 5.65307 6.01686H10.3689L21.8889 6.01846L30.9419 6.01881L33.8607 6.01637C34.8959 6.01544 36.125 5.91223 37.0684 6.40595C37.9054 6.84413 38.5054 7.67952 38.786 8.59285C38.8297 8.73049 38.8676 8.89372 38.9116 9.02387V31.3871C38.5597 32.5476 38.1235 33.4493 37.0363 34.0258C36.1113 34.5161 34.7757 34.4192 33.7652 34.4194L30.9192 34.4193L22.1211 34.4178L10.3392 34.418L6.31546 34.4188C5.55958 34.4191 4.74234 34.3993 3.98353 34.4174C2.27573 34.4581 0.962776 33.8634 0.23936 32.1831C0.164073 32.0083 0.0753834 31.5916 0 31.4725V8.93108ZM27.9312 15.652L32.4338 10.9984C33.1314 10.2774 34.1862 9.10986 34.8918 8.48892L34.8843 8.43618C34.7982 8.37667 34.7013 8.36986 34.5979 8.37061C33.4891 8.3783 32.3774 8.3784 31.2687 8.3784L23.9417 8.37851L3.95735 8.37631C4.07418 8.57123 4.98939 9.48811 5.19931 9.70422L7.93558 12.531L14.0271 18.8284L15.9932 20.8609C16.7332 21.625 17.5558 22.6272 18.6133 22.8643C19.4632 23.0549 20.4617 22.9898 21.1783 22.4536C22.108 21.8076 22.8891 20.8526 23.6968 20.035C25.1193 18.5951 26.5066 17.0844 27.9312 15.652ZM2.25992 10.0445L2.25301 22.0799C2.25355 24.8422 2.21607 27.7063 2.26175 30.4583C2.72613 29.8435 3.38684 29.2333 3.92014 28.6646C5.00134 27.5119 6.16995 26.3834 7.24234 25.227L10.3946 21.9709C10.9006 21.4476 11.6413 20.7329 12.1025 20.2057C9.89516 17.8368 7.50322 15.4369 5.2432 13.1055L3.15401 10.9464C3.01295 10.7992 2.36274 10.0787 2.25992 10.0445ZM36.5694 10.0504C36.3001 10.4103 35.7635 10.9322 35.4379 11.2683L33.4475 13.3214L26.7898 20.2035C27.1942 20.6534 27.6319 21.0994 28.0573 21.5285C29.3101 22.7923 30.5237 24.1106 31.78 25.3689L34.972 28.6645C35.4236 29.1301 36.2837 29.9661 36.6445 30.443C36.7049 26.4804 36.6558 22.3908 36.6554 18.4201L36.6547 13.084C36.6547 12.1594 36.6575 11.2346 36.65 10.3101C36.6493 10.1988 36.6554 10.1238 36.5694 10.0504ZM13.7247 21.8569C13.5709 22.1051 13.019 22.6398 12.7846 22.8808L11.0649 24.6482L6.71311 29.1392C5.79022 30.0913 4.82664 31.0621 3.9241 32.0307C4.89085 32.067 5.98403 32.0437 6.95962 32.0433L12.3189 32.0412H28.5523L32.8232 32.044C33.3834 32.0442 34.4832 32.0797 34.9897 32.0282L27.9611 24.7811L26.1313 22.8931C25.8647 22.6182 25.3437 22.1236 25.1499 21.8306C24.9741 22.1268 24.5275 22.5311 24.2767 22.7958C23.2725 23.8554 22.3648 24.7916 20.9185 25.1504C19.3608 25.537 17.719 25.3281 16.3686 24.4073C15.55 23.8491 14.9363 23.0758 14.2262 22.3791C14.1152 22.2703 13.8123 21.9249 13.7247 21.8569Z" fill="white"/>
</g>
<defs>
<clipPath id="clip0_275_280">
<rect width="38.9116" height="40.4082" fill="white"/>
</clipPath>
</defs>
</svg>
