<svg width="914" height="820" viewBox="0 0 914 820" fill="none" xmlns="http://www.w3.org/2000/svg">
<g opacity="0.05">
<path d="M495.805 698.079H416.617L412.501 819.629L501.34 818.564L495.805 698.079Z" fill="#14394D"/>
<path d="M489.97 543.603L422.277 544.029L419.297 650.11L494.369 649.329L489.97 543.603Z" fill="#14394D"/>
<path d="M484.522 396.084L428.82 396.793L425.557 494.715L488.283 495.85L484.522 396.084Z" fill="#14394D"/>
<path d="M480.017 254.877L432.405 255.586L429.992 347.973L483.991 347.76L480.017 254.877Z" fill="#14394D"/>
<path d="M478.096 205.137L475.045 121.833L469.155 121.478C461.776 121.053 450.068 121.124 441.908 123.039L437.082 124.175L434.315 205.279H471.355L478.096 205.137Z" fill="#14394D"/>
<path d="M913.789 818.99L529.271 2.9802L527.923 0.141918L457.462 0H456.824H456.185L385.795 0.141918L3.2642 812.036L0 818.99L173.704 818.28L456.824 1.84488L740.156 818.28L913.789 818.99Z" fill="#14394D"/>
</g>
</svg>
