<svg width="1174" height="1053" viewBox="0 0 1174 1053" fill="none" xmlns="http://www.w3.org/2000/svg">
<g opacity="0.1">
<path d="M636.974 896.841H535.239L529.952 1053L644.085 1051.63L636.974 896.841Z" fill="white"/>
<path d="M629.479 698.382L542.511 698.929L538.683 835.214L635.131 834.211L629.479 698.382Z" fill="white"/>
<path d="M622.479 508.86L550.918 509.771L546.725 635.573L627.311 637.032L622.479 508.86Z" fill="white"/>
<path d="M616.693 327.447L555.524 328.359L552.424 447.05L621.798 446.777L616.693 327.447Z" fill="white"/>
<path d="M614.224 263.545L610.304 156.522L602.738 156.066C593.257 155.519 578.216 155.611 567.732 158.072L561.533 159.531L557.978 263.728H605.564L614.224 263.545Z" fill="white"/>
<path d="M1173.97 1052.18L679.969 3.82874L678.237 0.182326L587.715 0H586.894H586.073L495.642 0.182326L4.1936 1043.25L0 1052.18L223.162 1051.27L586.894 2.37017L950.899 1051.27L1173.97 1052.18Z" fill="white"/>
</g>
</svg>
