<svg width="36" height="36" viewBox="0 0 36 36" fill="none" xmlns="http://www.w3.org/2000/svg">
<path d="M17.7408 1.10436C19.1591 1.08102 20.5748 1.23454 21.955 1.56139C26.2812 2.60272 30.0142 5.32457 32.3287 9.12497C34.6183 12.898 35.3217 17.4239 34.2846 21.7137C33.2288 26.0353 30.5002 29.7608 26.6985 32.0713C23.0021 34.3389 18.5603 35.0567 14.3378 34.069C13.4094 33.8935 12.3379 33.4944 11.4644 33.1287C11.0643 32.9612 10.446 32.6172 10.0601 32.5016C9.50017 32.6021 8.73729 32.8249 8.17028 32.974L4.97596 33.813C4.47366 33.9445 1.50301 34.6779 1.24365 34.8309C1.38365 34.1714 1.62307 33.3656 1.80337 32.7065L2.95586 28.5012C3.1621 27.749 3.42545 26.878 3.59103 26.1302C3.36415 25.6411 3.08176 25.1775 2.84487 24.6487C1.9929 22.7638 1.5046 20.7349 1.40565 18.6687C1.02137 9.05299 8.15814 1.48189 17.7408 1.10436ZM6.63466 25.6745C6.32157 27.1479 5.79496 28.6489 5.44051 30.1173C5.38808 30.3345 5.31648 30.5937 5.24405 30.8044C6.3773 30.5198 7.5081 30.2255 8.63638 29.9217C9.11942 29.7944 10.0055 29.536 10.4755 29.4716C10.8477 29.6073 11.4052 29.978 11.7999 30.1758C12.986 30.7703 14.7302 31.3885 16.0559 31.5148C19.5441 32.0742 23.2698 31.1261 26.1271 29.0611C29.1289 26.9175 31.1522 23.6656 31.7491 20.0255C32.3442 16.3873 31.4643 12.6618 29.3045 9.67417C27.1416 6.66986 23.8624 4.66053 20.2036 4.09762C19.4113 3.9725 18.4925 3.93045 17.689 3.94437C13.8829 4.08377 10.473 5.59792 7.87697 8.39534C5.36103 11.1173 4.04198 14.7347 4.21526 18.4373C4.31908 21.1931 5.18912 23.3761 6.63466 25.6745Z" fill="white"/>
<path d="M12.2599 10.0819C12.9096 10.0825 13.5014 9.97188 13.8171 10.66C14.2135 11.5241 14.5485 12.41 14.9192 13.2854C15.062 13.6227 15.2124 13.9518 15.3036 14.3074C15.1455 14.9864 14.51 15.5756 14.1097 16.1405C13.7037 16.7134 14.0187 16.9748 14.3483 17.4867C15.6546 19.5152 17.7864 21.3373 20.1178 21.9882C20.6335 22.1322 21.7689 19.9006 22.3188 19.8344C23.671 20.1518 25.0973 21.0078 26.3335 21.6502C26.9015 21.9453 26.2372 23.8519 25.9052 24.2894C25.461 24.7715 25.0412 25.0659 24.4603 25.3662C22.8064 26.2213 21.2686 25.7481 19.6411 25.1884C16.0315 23.9471 13.4225 21.4192 11.2515 18.3561C9.58411 16.0034 8.72298 13.2249 10.8286 10.8176C11.2742 10.3092 11.5609 10.1309 12.2599 10.0819Z" fill="white"/>
</svg>
